<svg xmlns="http://www.w3.org/2000/svg" viewBox="0 0 24 24" id="Pause"><path fill="none" d="M0,0H24V24H0Z" data-name="Path 3707"></path><path fill="#ffffff" d="M10.4,3H6.8A1.8,1.8,0,0,0,5,4.8V18.6a1.8,1.8,0,0,0,1.8,1.8h3.6a1.8,1.8,0,0,0,1.8-1.8V4.8A1.8,1.8,0,0,0,10.4,3Zm0,15.6H6.8V4.8h3.6ZM19.4,3H15.8A1.8,1.8,0,0,0,14,4.8V18.6a1.8,1.8,0,0,0,1.8,1.8h3.6a1.8,1.8,0,0,0,1.8-1.8V4.8A1.8,1.8,0,0,0,19.4,3Zm0,15.6H15.8V4.8h3.6Z" data-name="Path 3597" transform="translate(-1.1 .3)" class="color525863 svgShape"></path></svg>